<svg xmlns="http://www.w3.org/2000/svg" xmlns:xlink="http://www.w3.org/1999/xlink" width="1059.594" height="544.991" version="1.1" viewBox="0 0 794.695 408.743"><g><clipPath id="cp0"><path d="M 0 .00001206994 L 959.76 .00001206994 L 959.76 540 L 0 540 Z" transform="matrix(1,0,0,-1,-87.21484,471.8801)"/></clipPath><g clip-path="url(#cp0)"><path fill="none" d="M 0 540 L 959.76 540 L 959.76 .00001206994 L 0 .00001206994 Z" transform="matrix(1,0,0,-1,-87.21484,471.8801)"/></g><path fill="none" d="M 0 540 L 960 540 L 960 .0000140816 L 0 .0000140816 Z" transform="matrix(1,0,0,-1,-87.21484,471.8801)"/><clipPath id="cp1"><path d="M 618.96 209.04 L 864 209.04 L 864 454.08 L 618.96 454.08 Z" transform="matrix(1,0,0,-1,-87.21484,471.8801)"/></clipPath><g clip-path="url(#cp1)"><path fill="none" stroke="orange" stroke-linecap="round" stroke-linejoin="round" stroke-width="50800" d="M 0 397634 L 154282 339722 L 309730 404437 L 465178 379346 L 620626 336674 L 776074 336674 L 931522 327530 L 1086970 242186 L 1242418 159890 L 1397866 208658 L 1553314 217802 L 1708762 233042 L 1864210 211706 L 2016610 254378 L 2172058 165986 L 2327506 184274 L 2482954 80642 L 2638402 59306 L 2793850 37970 L 2949370 0" transform="matrix(.00007874016,0,0,.00007874016,538.07699,216.1703)"/></g><clipPath id="cp2"><path d="M 618.96 209.04 L 864 209.04 L 864 454.08 L 618.96 454.08 Z" transform="matrix(1,0,0,-1,-87.21484,471.8801)"/></clipPath><g clip-path="url(#cp2)"><path fill="none" stroke="#00b" stroke-linecap="round" stroke-linejoin="round" stroke-width="50800" d="M 0 789680 L 154282 698240 L 309730 807125 L 465178 743960 L 620626 695192 L 776074 689096 L 931522 670808 L 1086970 548888 L 1242418 417824 L 1397866 503168 L 1553314 497072 L 1708762 536696 L 1864210 484880 L 2016610 539744 L 2172058 372104 L 2327506 359912 L 2482954 152648 L 2638402 103880 L 2793850 45968 L 2949370 0" transform="matrix(.00007874016,0,0,.00007874016,538.07699,170.1806)"/></g><clipPath id="cp3"><path d="M 618.96 209.04 L 864 209.04 L 864 454.08 L 618.96 454.08 Z" transform="matrix(1,0,0,-1,-87.21484,471.8801)"/></clipPath><g clip-path="url(#cp3)"><path fill="none" stroke="#e7e6e6" stroke-linecap="round" stroke-linejoin="round" stroke-width="50800" d="M 0 1545082 L 154282 1398778 L 309730 1569666 L 465178 1474978 L 620626 1429258 L 776074 1404874 L 931522 1362202 L 1086970 1164082 L 1242418 959866 L 1397866 1039114 L 1553314 1026922 L 1708762 1054354 L 1864210 935482 L 2016610 1005586 L 2172058 755650 L 2327506 706882 L 2482954 356362 L 2638402 219202 L 2793850 127762 L 2949370 0" transform="matrix(.00007874016,0,0,.00007874016,538.07699,95.34009)"/></g><clipPath id="cp4"><path d="M 618.96 209.04 L 864 209.04 L 864 454.08 L 618.96 454.08 Z" transform="matrix(1,0,0,-1,-87.21484,471.8801)"/></clipPath><g clip-path="url(#cp4)"><path fill="none" stroke="#bf00ff" stroke-linecap="round" stroke-linejoin="round" stroke-width="50800" d="M 0 1866369 L 154282 1692633 L 309730 1899746 L 465178 1762737 L 620626 1723113 L 776074 1701777 L 931522 1668249 L 1086970 1427457 L 1242418 1162281 L 1397866 1284201 L 1553314 1281153 L 1708762 1339065 L 1864210 1208001 L 2016610 1262865 L 2172058 939777 L 2327506 860529 L 2482954 470385 L 2638402 260073 L 2793850 132057 L 2949370 0" transform="matrix(.00007874016,0,0,.00007874016,538.07699,54.681886)"/></g><path fill="none" stroke="#00b" stroke-linecap="butt" stroke-linejoin="round" stroke-width="50800" d="M 0 0 L 3383999 0 L 3383999 3383999 L 0 3383999 Z" transform="matrix(.00007874016,0,0,.00007874016,520.9656,7.3960878)"/><text fill="#00b" font-family="Arial" font-size="1250" font-weight="bold" transform="matrix(.24 0 -0 .24 2.0752335 790.8401)" xml:space="preserve"><tspan x="0" y="-2250">t</tspan></text><text fill="#00b" font-family="Arial" font-size="1250" font-weight="bold" transform="matrix(.24 0 -0 .24 100.45026 790.8401)" xml:space="preserve"><tspan x="0" y="-2250">s</tspan></text><text fill="#bf00ff" font-family="Arial" font-size="1250" font-weight="bold" transform="matrix(.24 0 -0 .24 265.82527 790.8401)" xml:space="preserve"><tspan x="0 689" y="-2250">ai</tspan></text><text fill="orange" font-family="Calibri" font-size="279.167" font-weight="bold" transform="matrix(.24 0 -0 .24 5.348068 866.9201)" xml:space="preserve"><tspan x="0 102.091 189.945 319.115 406.411" y="-2250">state</tspan></text><text fill="orange" font-family="Calibri" font-size="279.167" font-weight="bold" transform="matrix(.24 0 -0 .24 135.12805 866.9201)" xml:space="preserve"><tspan x="0" y="-2250">-</tspan></text><text fill="orange" font-family="Calibri" font-size="279.167" font-weight="bold" transform="matrix(.24 0 -0 .24 154.12805 866.9201)" xml:space="preserve"><tspan x="0 143.743" y="-2250">of</tspan></text><text fill="orange" font-family="Calibri" font-size="279.167" font-weight="bold" transform="matrix(.24 0 -0 .24 206.90805 866.9201)" xml:space="preserve"><tspan x="0" y="-2250">-</tspan></text><text fill="orange" font-family="Calibri" font-size="279.167" font-weight="bold" transform="matrix(.24 0 -0 .24 225.90805 866.9201)" xml:space="preserve"><tspan x="0 90.618 234.277" y="-2250">the</tspan></text><text fill="orange" font-family="Calibri" font-size="279.167" font-weight="bold" transform="matrix(.24 0 -0 .24 314.40806 866.9201)" xml:space="preserve"><tspan x="0" y="-2250">-</tspan></text><text fill="orange" font-family="Calibri" font-size="279.167" font-weight="bold" transform="matrix(.24 0 -0 .24 333.40806 866.9201)" xml:space="preserve"><tspan x="0 131.767 225.008 315.738 372.408 516.179 650.458 784.738 928.508 985.179 1047.713 1181.992 1313.759 1407 1550.771 1613.304 1757.075" y="-2250">art deep learning</tspan></text><text fill="orange" font-family="Calibri" font-size="279.167" font-weight="bold" transform="matrix(.24 0 -0 .24 5.348068 931.9601)" xml:space="preserve"><tspan x="0 78.055 221.714 314.844 371.683 462.3 524.722 745.431 879.878 936.716 1041.85 1176.297 1269.427 1331.848 1466.295 1571.429 1628.268 1759.923 1903.582 2047.241 2104.079 2209.214 2343.66 2487.32 2630.979 2765.426 2909.085 3019.523 3153.97" y="-2250">for time series and sequences</tspan></text></g></svg>